{"title":"Prometheus(2012)MPEG-4[DaScubaDude]","uid":15067066,"size":1346344774,"categoryP":"video","categoryS":"movies","magnet":"?xt=urn:btih:904bcbaf9e5c04dc14381d44686b478046e10118&amp;dn=Prometheus%282012%29MPEG-4%5BDaScubaDude%5D&amp;tr=udp%3A%2F%2Ftracker.leechers-paradise.org%3A6969&amp;tr=udp%3A%2F%2Fzer0day.ch%3A1337&amp;tr=udp%3A%2F%2Fopen.demonii.com%3A1337&amp;tr=udp%3A%2F%2Ftracker.coppersurfer.tk%3A6969&amp;tr=udp%3A%2F%2Fexodus.desync.com%3A6969","seeders":1,"leechers":0,"uploader":"dascuba","files":1,"time":1466786201,"description":"Prometheus (2012)\r\nR | 2h 4min | Adventure, Mystery, Sci-Fi | 8 June 2012 (USA)\r\nFollowing clues to the origin of mankind a team journey across the universe and find a structure on a distant planet containing a monolithic statue of a humanoid head and stone cylinders of alien blood but they soon find they are not alone.\r\nDirector: Ridley Scott\r\nWriters: Jon Spaihts, Damon Lindelof |\r\nStars: Noomi Rapace, Logan Marshall-Green, Michael Fassbender |\r\n\r\nGeneral\r\nComplete name                            : PrometheusPROMETHEUS_Title1.mp4\r\nFormat                                   : MPEG-4\r\nFormat profile                           : Base Media\r\nCodec ID                                 : isom (isom/iso2/avc1/mp41)\r\nFile size                                : 1.25 GiB\r\nDuration                                 : 2h 3mn\r\nOverall bit rate                         : 1 451 Kbps\r\nMovie name                               : PROMETHEUS\r\nGenre                                    : Science_Fiction\r\nWriting application                      : Lavf54.6.100\r\n\r\nVideo\r\nID                                       : 1\r\nFormat                                   : AVC\r\nFormat/Info                              : Advanced Video Codec\r\nFormat profile                           :   \r\nFormat settings, CABAC                   : No\r\nFormat settings, ReFrames                : 6 frames\r\nCodec ID                                 : avc1\r\nCodec ID/Info                            : Advanced Video Coding\r\nDuration                                 : 2h 3mn\r\nBit rate                                 : 1 202 Kbps\r\nWidth                                    : 720 pixels\r\nHeight                                   : 404 pixels\r\nDisplay aspect ratio                     : 16:9\r\nFrame rate mode                          : Constant\r\nFrame rate                               : 29.970 (30000/1001) fps\r\nColor space                              : YUV\r\nChroma subsampling                       : 4:2:0\r\nBit depth                                : 8 bits\r\nScan type                                : Progressive\r\nBits/(Pixel*Frame)                       : 0.138\r\nStream size                              : 1.04 GiB (83%)\r\n\r\nAudio\r\nID                                       : 2\r\nFormat                                   : AAC\r\nFormat/Info                              : Advanced Audio Codec\r\nFormat profile                           : LC\r\nCodec ID                                 : 40\r\nDuration                                 : 2h 3mn\r\nBit rate mode                            : Constant\r\nBit rate                                 : 243 Kbps\r\nChannel(s)                               : 2 channels\r\nChannel(s)_Original                      : 6 channels\r\nChannel positions                        : Front: L C R, Side: L R, LFE\r\nSampling rate                            : 44.1 KHz\r\nFrame rate                               : 43.066 fps (1024 spf)\r\nCompression mode                         : Lossy\r\nStream size                              : 215 MiB (17%)\r\nDefault                                  : Yes\r\nAlternate group                          : 1","torrent":{"xt":"urn:btih:904bcbaf9e5c04dc14381d44686b478046e10118","amp;dn":"Prometheus%282012%29MPEG-4%5BDaScubaDude%5D","amp;tr":["udp%3A%2F%2Ftracker.leechers-paradise.org%3A6969","udp%3A%2F%2Fzer0day.ch%3A1337","udp%3A%2F%2Fopen.demonii.com%3A1337","udp%3A%2F%2Ftracker.coppersurfer.tk%3A6969","udp%3A%2F%2Fexodus.desync.com%3A6969"],"infoHash":"904bcbaf9e5c04dc14381d44686b478046e10118","infoHashBuffer":{"type":"Buffer","data":[144,75,203,175,158,92,4,220,20,56,29,68,104,107,71,128,70,225,1,24]},"announce":[],"urlList":[]}}